<svg width="205.167" height="37.473" xmlns="http://www.w3.org/2000/svg">

 <g>
  <title>background</title>
  <rect fill="none" id="canvas_background" height="402" width="582" y="-1" x="-1"/>
 </g>
 <g>
  <title>Layer 1</title>
  <g display="none" id="Layer_4">
   <path id="svg_1" d="m170.148,17.94c-3.716,-0.685 -5.986,-1.312 -7.348,-2.673c-1.36,-1.36 -1.988,-3.63 -2.673,-7.348c-0.058,-0.307 -0.321,-0.528 -0.636,-0.528c-0.312,0 -0.58,0.225 -0.635,0.528c-0.685,3.718 -1.312,5.986 -2.673,7.348c-1.361,1.36 -3.633,1.988 -7.348,2.673c-0.306,0.059 -0.528,0.322 -0.528,0.637c0,0.312 0.224,0.579 0.528,0.635c3.715,0.685 5.986,1.313 7.348,2.673c1.359,1.36 1.988,3.632 2.673,7.348c0.055,0.307 0.321,0.528 0.635,0.528c0.312,0 0.578,-0.224 0.636,-0.528c0.685,-3.716 1.312,-5.985 2.673,-7.348c1.36,-1.357 3.632,-1.988 7.348,-2.673c0.307,-0.056 0.528,-0.321 0.528,-0.635s-0.221,-0.579 -0.528,-0.637z" fill="#FFFFFF"/>
  </g>
  <g display="none" id="Layer_2">
   <path id="svg_2" d="m-13.007,-45.615c6.705,-9.825 10.625,-21.703 10.625,-34.496c0,-33.843 -27.435,-61.275 -61.277,-61.275c-33.842,0 -61.276,27.435 -61.276,61.275c0,33.843 27.435,61.276 61.276,61.276c14.613,0 28.031,-5.115 38.562,-13.652" stroke-miterlimit="10" stroke-linecap="round" stroke-width="8" stroke="#000000" fill="none"/>
  </g>
  <text stroke="#000" transform="matrix(1.3109148740768433,0,0,1.3109148740768433,-1.4865617416799068,-10.27962302416563) " font-style="normal" font-weight="bold" xml:space="preserve" text-anchor="start" font-family="Junction, sans-serif" font-size="24" id="svg_10" y="32.036214" x="4.275" stroke-width="0" fill="#ffffff">221 FOREVER</text>
 </g>
</svg>